<svg width="62" height="61" viewBox="0 0 62 61" fill="none" xmlns="http://www.w3.org/2000/svg">
<g clip-path="url(#clip0_39_879)">
<path d="M5.04712 52.3519H55.3074C55.3835 52.3519 55.4565 52.3819 55.5103 52.4353C55.5641 52.4887 55.5943 52.5611 55.5943 52.6366C55.5943 52.7121 55.5641 52.7845 55.5103 52.8379C55.4565 52.8913 55.3835 52.9213 55.3074 52.9213H5.04712C4.97102 52.9213 4.89804 52.8913 4.84423 52.8379C4.79042 52.7845 4.76019 52.7121 4.76019 52.6366C4.76019 52.5611 4.79042 52.4887 4.84423 52.4353C4.89804 52.3819 4.97102 52.3519 5.04712 52.3519Z" fill="url(#paint0_linear_39_879)"/>
<path d="M54.7163 54.8252C54.7163 54.9007 54.686 54.9731 54.6322 55.0265C54.5784 55.0799 54.5054 55.1099 54.4293 55.1099H3.92016C3.88007 55.1143 3.83949 55.1103 3.80109 55.0981C3.76268 55.0858 3.72731 55.0657 3.69726 55.039C3.66722 55.0123 3.64319 54.9796 3.62674 54.9431C3.61029 54.9065 3.60178 54.867 3.60178 54.8269C3.60178 54.7869 3.61029 54.7473 3.62674 54.7108C3.64319 54.6743 3.66722 54.6416 3.69726 54.6149C3.72731 54.5882 3.76268 54.568 3.80109 54.5558C3.83949 54.5436 3.88007 54.5395 3.92016 54.5439H54.4293C54.5048 54.5439 54.5773 54.5734 54.631 54.6261C54.6847 54.6788 54.7153 54.7503 54.7163 54.8252Z" fill="url(#paint1_linear_39_879)"/>
<path d="M55.3074 57.302H5.04712C4.97102 57.302 4.89804 57.272 4.84423 57.2186C4.79042 57.1652 4.76019 57.0928 4.76019 57.0173C4.76019 56.9418 4.79042 56.8693 4.84423 56.8159C4.89804 56.7625 4.97102 56.7325 5.04712 56.7325H55.3074C55.3835 56.7325 55.4565 56.7625 55.5103 56.8159C55.5641 56.8693 55.5943 56.9418 55.5943 57.0173C55.5943 57.0928 55.5641 57.1652 55.5103 57.2186C55.4565 57.272 55.3835 57.302 55.3074 57.302Z" fill="url(#paint2_linear_39_879)"/>
<path d="M5.56911 60.9657C4.3212 60.8399 3.1423 60.337 2.19169 59.5249C1.96527 59.3305 1.75273 59.1208 1.55562 58.8971C1.16339 58.4688 0.840368 57.9828 0.598048 57.4564C0.171022 56.5615 -0.0329087 55.5779 0.00345582 54.5885C0.0489051 53.3809 0.461004 52.215 1.18573 51.2438C1.78597 50.4401 2.56771 49.7871 3.46823 49.3373C4.36875 48.8875 5.36296 48.6534 6.37112 48.6539H61.0562C61.2152 48.6561 61.3711 48.6978 61.5096 48.7753C61.6481 48.8527 61.7648 48.9634 61.8491 49.0972C61.9333 49.2309 61.9824 49.3836 61.9919 49.541C62.0013 49.6985 61.9708 49.8558 61.9032 49.9986C61.86 50.0881 61.8029 50.1704 61.7338 50.2422L61.7131 50.2627C61.6267 50.3543 61.5219 50.4268 61.4054 50.4754C61.2883 50.5244 61.1626 50.55 61.0355 50.5509H6.21901C5.635 50.5511 5.05712 50.6691 4.52044 50.8976C3.98377 51.1262 3.49949 51.4606 3.09701 51.8805C2.69452 52.3005 2.38221 52.7972 2.17905 53.3405C1.97589 53.8839 1.8861 54.4625 1.91514 55.0413C1.91514 55.1854 1.93588 55.3261 1.95662 55.4667C1.99993 55.7406 2.07056 56.0095 2.16749 56.2694C2.25687 56.5253 2.37272 56.7713 2.51319 57.0035C2.72546 57.3484 2.9862 57.6614 3.28754 57.9332C3.48982 58.1161 3.70851 58.2803 3.9409 58.4237C4.05267 58.4969 4.16804 58.5644 4.28659 58.6261C4.91596 58.9408 5.61108 59.1041 6.31581 59.103H61.0355C61.1646 59.1007 61.2927 59.1252 61.4118 59.1748C61.5308 59.2244 61.6381 59.2981 61.7269 59.3911L61.7476 59.4117C61.8775 59.5446 61.9648 59.7128 61.9984 59.8949C62.032 60.0771 62.0104 60.265 61.9364 60.435C61.8624 60.6049 61.7393 60.7493 61.5827 60.8499C61.426 60.9505 61.2428 61.0027 61.0562 61H6.21901C6.0019 61.0006 5.78492 60.9892 5.56911 60.9657Z" fill="url(#paint3_linear_39_879)"/>
<path d="M56.9494 37.649H6.70644C6.66635 37.6446 6.62578 37.6487 6.58737 37.6609C6.54897 37.6731 6.51359 37.6933 6.48355 37.72C6.45351 37.7467 6.42948 37.7794 6.41302 37.8159C6.39657 37.8524 6.38807 37.892 6.38807 37.932C6.38807 37.9721 6.39657 38.0116 6.41302 38.0482C6.42948 38.0847 6.45351 38.1174 6.48355 38.1441C6.51359 38.1708 6.54897 38.1909 6.58737 38.2032C6.62578 38.2154 6.66635 38.2194 6.70644 38.215H56.9494C57.0197 38.2074 57.0846 38.1742 57.1317 38.122C57.1788 38.0698 57.2049 38.0021 57.2049 37.932C57.2049 37.8619 57.1788 37.7943 57.1317 37.7421C57.0846 37.6898 57.0197 37.6567 56.9494 37.649Z" fill="url(#paint4_linear_39_879)"/>
<path d="M7.28029 40.1224C7.28029 40.1979 7.31051 40.2703 7.36432 40.3237C7.41813 40.3771 7.49111 40.4071 7.56721 40.4071H58.0729C58.149 40.4071 58.222 40.3771 58.2758 40.3237C58.3296 40.2703 58.3598 40.1979 58.3598 40.1224C58.3598 40.0469 58.3296 39.9744 58.2758 39.921C58.222 39.8676 58.149 39.8376 58.0729 39.8376H7.56721C7.49111 39.8376 7.41813 39.8676 7.36432 39.921C7.31051 39.9744 7.28029 40.0469 7.28029 40.1224Z" fill="url(#paint5_linear_39_879)"/>
<path d="M6.70644 42.5991H56.9494C57.0255 42.5991 57.0985 42.5691 57.1523 42.5158C57.2061 42.4624 57.2363 42.3899 57.2363 42.3144C57.2363 42.2389 57.2061 42.1665 57.1523 42.1131C57.0985 42.0597 57.0255 42.0297 56.9494 42.0297H6.70644C6.63035 42.0297 6.55737 42.0597 6.50356 42.1131C6.44975 42.1665 6.41952 42.2389 6.41952 42.3144C6.41952 42.3899 6.44975 42.4624 6.50356 42.5158C6.55737 42.5691 6.63035 42.5991 6.70644 42.5991Z" fill="url(#paint6_linear_39_879)"/>
<path d="M56.4274 46.2491C57.2609 46.1625 58.0679 45.9081 58.7989 45.5013C59.1576 45.3083 59.4948 45.0784 59.8049 44.8152C60.031 44.6217 60.2424 44.4118 60.4375 44.1874C60.6471 43.9562 60.8389 43.7096 61.0113 43.4499C61.1554 43.2246 61.2836 42.9896 61.395 42.7467C61.8251 41.8527 62.0303 40.8687 61.9931 39.8788C61.947 38.6702 61.535 37.5035 60.8108 36.5307C60.576 36.2165 60.3121 35.9248 60.0226 35.6594C58.8282 34.5564 57.257 33.9435 55.6254 33.9442H0.940289C0.748305 33.943 0.560414 33.9992 0.401006 34.1054C0.304692 34.1779 0.222664 34.2675 0.159022 34.3695C0.0688044 34.504 0.0153205 34.6594 0.00380705 34.8206C-0.00770637 34.9818 0.0231444 35.1431 0.0933398 35.2889C0.13655 35.3774 0.193733 35.4584 0.262728 35.529L0.283472 35.553C0.369819 35.6446 0.474655 35.7171 0.591138 35.7657C0.708486 35.8135 0.834166 35.838 0.961029 35.8378H55.7775C56.3616 35.8389 56.9393 35.9576 57.4757 36.1868C58.0122 36.4159 58.4963 36.7506 58.8986 37.1707C59.3009 37.5908 59.6132 38.0875 59.8165 38.6309C60.0198 39.1742 60.1099 39.7528 60.0814 40.3316C60.0814 40.4757 60.0607 40.6164 60.0399 40.757C59.9966 41.0308 59.926 41.2997 59.829 41.5597C59.7375 41.8136 59.6217 42.0583 59.4833 42.2904C59.2719 42.6378 59.0097 42.9522 58.7055 43.2235C58.5042 43.4061 58.2867 43.5702 58.0556 43.714C57.9381 43.7861 57.8206 43.8512 57.71 43.913C57.338 44.101 56.9411 44.2362 56.5311 44.3144C56.2507 44.3666 55.966 44.393 55.6807 44.3933H0.961029C0.831794 44.39 0.703325 44.4139 0.584133 44.4636C0.464941 44.5133 0.357745 44.5875 0.269644 44.6814L0.248903 44.702C0.119024 44.8349 0.0317688 45.0031 -0.00183441 45.1852C-0.0354376 45.3673 -0.0138801 45.5553 0.0601108 45.7253C0.134102 45.8952 0.257206 46.0396 0.413869 46.1402C0.570532 46.2408 0.753722 46.293 0.940289 46.2903H55.7775C55.9988 46.2971 56.2131 46.2834 56.4274 46.2491Z" fill="url(#paint7_linear_39_879)"/>
<path d="M5.04712 22.9427H55.3074C55.3835 22.9427 55.4565 22.9727 55.5103 23.0261C55.5641 23.0795 55.5943 23.152 55.5943 23.2275C55.5943 23.303 55.5641 23.3754 55.5103 23.4288C55.4565 23.4822 55.3835 23.5122 55.3074 23.5122H5.04712C4.97102 23.5122 4.89804 23.4822 4.84423 23.4288C4.79042 23.3754 4.76019 23.303 4.76019 23.2275C4.76019 23.152 4.79042 23.0795 4.84423 23.0261C4.89804 22.9727 4.97102 22.9427 5.04712 22.9427Z" fill="url(#paint8_linear_39_879)"/>
<path d="M54.7163 25.4195C54.7163 25.495 54.686 25.5675 54.6322 25.6209C54.5784 25.6743 54.5054 25.7042 54.4293 25.7042H3.92016C3.84406 25.7042 3.77108 25.6743 3.71727 25.6209C3.66346 25.5675 3.63323 25.495 3.63323 25.4195C3.63323 25.344 3.66346 25.2716 3.71727 25.2182C3.77108 25.1648 3.84406 25.1348 3.92016 25.1348H54.4293C54.467 25.1348 54.5043 25.1422 54.5391 25.1565C54.5739 25.1708 54.6056 25.1918 54.6322 25.2182C54.6589 25.2446 54.68 25.276 54.6944 25.3106C54.7088 25.3451 54.7163 25.3821 54.7163 25.4195Z" fill="url(#paint9_linear_39_879)"/>
<path d="M55.3074 27.8929H5.04711C5.00702 27.8973 4.96645 27.8932 4.92804 27.881C4.88964 27.8688 4.85426 27.8486 4.82422 27.8219C4.79418 27.7952 4.77014 27.7625 4.75369 27.726C4.73724 27.6895 4.72874 27.6499 4.72874 27.6099C4.72874 27.5698 4.73724 27.5303 4.75369 27.4937C4.77014 27.4572 4.79418 27.4245 4.82422 27.3978C4.85426 27.3711 4.88964 27.351 4.92804 27.3387C4.96645 27.3265 5.00702 27.3225 5.04711 27.3268H55.3074C55.3475 27.3225 55.388 27.3265 55.4264 27.3387C55.4649 27.351 55.5002 27.3711 55.5303 27.3978C55.5603 27.4245 55.5843 27.4572 55.6008 27.4937C55.6173 27.5303 55.6257 27.5698 55.6257 27.6099C55.6257 27.6499 55.6173 27.6895 55.6008 27.726C55.5843 27.7625 55.5603 27.7952 55.5303 27.8219C55.5002 27.8486 55.4649 27.8688 55.4264 27.881C55.388 27.8932 55.3475 27.8973 55.3074 27.8929Z" fill="url(#paint10_linear_39_879)"/>
<path d="M5.56911 31.56C4.73463 31.4728 3.92667 31.2184 3.1942 30.8122C2.83861 30.6159 2.5029 30.3862 2.1917 30.1261C1.96527 29.9317 1.75273 29.7219 1.55562 29.4983C1.34818 29.2661 1.15757 29.0197 0.985228 28.7608C0.841289 28.5347 0.711969 28.2998 0.598051 28.0575C0.170481 27.1617 -0.0334632 26.1768 0.00345923 25.1863C0.0495498 23.9787 0.461584 22.8131 1.18573 21.8416C1.42032 21.5272 1.68296 21.2345 1.97045 20.9668C3.16887 19.868 4.73944 19.2558 6.37112 19.2516H61.0563C61.2488 19.25 61.4372 19.3075 61.5955 19.4163C61.6934 19.4871 61.7758 19.577 61.8375 19.6804C61.9277 19.8149 61.9812 19.9703 61.9927 20.1315C62.0042 20.2926 61.9734 20.454 61.9032 20.5998C61.8591 20.6877 61.802 20.7687 61.7338 20.8399L61.7131 20.8639C61.6267 20.9555 61.5219 21.028 61.4054 21.0766C61.2881 21.1244 61.1624 21.1489 61.0355 21.1486H6.21902C5.63484 21.1493 5.05689 21.2677 4.5202 21.4967C3.98351 21.7256 3.49927 22.0603 3.09683 22.4805C2.69439 22.9007 2.38214 23.3977 2.17902 23.9412C1.97589 24.4847 1.88612 25.0635 1.91514 25.6425C1.93393 26.0625 2.01909 26.4769 2.1675 26.8706C2.25622 27.1257 2.3721 27.3706 2.51319 27.6013C2.72542 27.9472 2.98615 28.2613 3.28754 28.5344C3.49074 28.7162 3.70933 28.8803 3.9409 29.0249C4.05273 29.0969 4.1681 29.1633 4.28659 29.2239C4.65874 29.4108 5.05558 29.5448 5.46541 29.6218C5.74544 29.677 6.0303 29.7046 6.31581 29.7041H61.0355C61.1644 29.7013 61.2924 29.7251 61.4115 29.7741C61.5305 29.8232 61.638 29.8963 61.7269 29.9889L61.7476 30.0129C61.8763 30.146 61.9626 30.3138 61.9955 30.4954C62.0284 30.6769 62.0066 30.8641 61.9328 31.0333C61.8589 31.2026 61.7363 31.3465 61.5804 31.4469C61.4245 31.5473 61.2421 31.5998 61.0563 31.5977H6.21902C6.00123 31.5909 5.78344 31.5806 5.56911 31.56Z" fill="url(#paint11_linear_39_879)"/>
<path d="M27.2579 6.79912C27.1878 6.72084 27.1029 6.65704 27.0079 6.61138C26.913 6.56572 26.8099 6.5391 26.7046 6.53305C26.5992 6.52699 26.4937 6.54162 26.3941 6.5761C26.2945 6.61057 26.2027 6.66421 26.124 6.73394L16.5552 15.4267C16.3893 15.5772 16.2904 15.7871 16.2804 16.01C16.2703 16.2329 16.3499 16.4506 16.5016 16.6153C16.6534 16.78 16.8648 16.8781 17.0895 16.8881C17.3141 16.898 17.5335 16.8191 17.6995 16.6685L27.2682 7.98262C27.346 7.90779 27.4079 7.81822 27.4501 7.71922C27.4923 7.62022 27.5141 7.51382 27.5141 7.40631C27.5141 7.29881 27.4923 7.1924 27.4501 7.0934C27.4079 6.9944 27.346 6.90483 27.2682 6.83L27.2579 6.79912Z" fill="url(#paint12_linear_39_879)"/>
<path d="M45.4448 15.4301L35.9175 6.65847C35.8374 6.58606 35.7434 6.53044 35.6411 6.49492C35.5388 6.4594 35.4304 6.44473 35.3223 6.45177C35.2141 6.45882 35.1086 6.48744 35.0118 6.53593C34.9151 6.58441 34.8293 6.65176 34.7594 6.73394L34.7352 6.76139C34.662 6.83714 34.6047 6.9265 34.5665 7.02432C34.5283 7.12215 34.5099 7.22651 34.5125 7.3314C34.515 7.43629 34.5385 7.53965 34.5815 7.63551C34.6244 7.73138 34.6861 7.81787 34.7629 7.89L44.2936 16.6651C44.4497 16.8085 44.6547 16.8882 44.8675 16.888C45.0381 16.8886 45.2049 16.838 45.346 16.7429C45.4872 16.6477 45.5961 16.5125 45.6585 16.355C45.7209 16.1974 45.7339 16.0248 45.6957 15.8597C45.6576 15.6947 45.5701 15.545 45.4448 15.4301Z" fill="url(#paint13_linear_39_879)"/>
<path d="M30.9775 6.55899C32.755 6.55899 34.1959 5.12911 34.1959 3.36526C34.1959 1.6014 32.755 0.17152 30.9775 0.17152C29.2001 0.17152 27.7591 1.6014 27.7591 3.36526C27.7591 5.12911 29.2001 6.55899 30.9775 6.55899Z" fill="#009492"/>
<path d="M30.9775 0.343041C31.5809 0.342363 32.1708 0.519328 32.6728 0.851529C33.1747 1.18373 33.566 1.65624 33.7972 2.20924C34.0284 2.76224 34.0891 3.37088 33.9716 3.95812C33.854 4.54536 33.5636 5.08479 33.137 5.50814C32.7103 5.93149 32.1667 6.21972 31.575 6.33636C30.9832 6.45299 30.3699 6.39279 29.8126 6.16336C29.2553 5.93393 28.7792 5.54559 28.4444 5.0475C28.1096 4.54942 27.9313 3.96397 27.932 3.36526C27.9329 2.564 28.2541 1.79581 28.825 1.22923C29.396 0.662652 30.1701 0.343949 30.9775 0.343041ZM30.9775 -2.06902e-06C30.3058 -0.000680497 29.649 0.1964 29.0902 0.566295C28.5315 0.93619 28.0958 1.46227 27.8384 2.07796C27.5811 2.69365 27.5136 3.37126 27.6444 4.02504C27.7753 4.67882 28.0987 5.27938 28.5737 5.75071C29.0486 6.22203 29.6538 6.54294 30.3127 6.67281C30.9715 6.80268 31.6543 6.73568 32.2748 6.48029C32.8952 6.2249 33.4254 5.79259 33.7981 5.23809C34.1709 4.68359 34.3695 4.03181 34.3688 3.36526C34.3688 2.47274 34.0115 1.61677 33.3755 0.985662C32.7395 0.354554 31.8769 -2.06902e-06 30.9775 -2.06902e-06Z" fill="black"/>
</g>
<defs>
<linearGradient id="paint0_linear_39_879" x1="4.76019" y1="52.6366" x2="55.577" y2="52.6366" gradientUnits="userSpaceOnUse">
<stop stop-color="#941CAC"/>
<stop offset="1" stop-color="#FF54E3"/>
</linearGradient>
<linearGradient id="paint1_linear_39_879" x1="3.63323" y1="54.8252" x2="54.7163" y2="54.8252" gradientUnits="userSpaceOnUse">
<stop stop-color="#941CAC"/>
<stop offset="1" stop-color="#FF54E3"/>
</linearGradient>
<linearGradient id="paint2_linear_39_879" x1="4.76019" y1="57.0173" x2="55.577" y2="57.0173" gradientUnits="userSpaceOnUse">
<stop stop-color="#941CAC"/>
<stop offset="1" stop-color="#FF54E3"/>
</linearGradient>
<linearGradient id="paint3_linear_39_879" x1="78.8698" y1="54.8252" x2="2.12255" y2="54.8252" gradientUnits="userSpaceOnUse">
<stop offset="0.15" stop-color="#000093"/>
<stop offset="0.26" stop-color="#1728A5"/>
<stop offset="0.46" stop-color="#3D6CC4"/>
<stop offset="0.64" stop-color="#5CA3DD"/>
<stop offset="0.8" stop-color="#72CAEF"/>
<stop offset="0.92" stop-color="#80E2FA"/>
<stop offset="1" stop-color="#85EBFE"/>
</linearGradient>
<linearGradient id="paint4_linear_39_879" x1="6.41952" y1="37.9338" x2="57.2329" y2="37.9338" gradientUnits="userSpaceOnUse">
<stop offset="0.15" stop-color="#000093"/>
<stop offset="0.26" stop-color="#1728A5"/>
<stop offset="0.46" stop-color="#3D6CC4"/>
<stop offset="0.64" stop-color="#5CA3DD"/>
<stop offset="0.8" stop-color="#72CAEF"/>
<stop offset="0.92" stop-color="#80E2FA"/>
<stop offset="1" stop-color="#85EBFE"/>
</linearGradient>
<linearGradient id="paint5_linear_39_879" x1="7.28029" y1="40.1224" x2="58.3633" y2="40.1224" gradientUnits="userSpaceOnUse">
<stop offset="0.15" stop-color="#000093"/>
<stop offset="0.26" stop-color="#1728A5"/>
<stop offset="0.46" stop-color="#3D6CC4"/>
<stop offset="0.64" stop-color="#5CA3DD"/>
<stop offset="0.8" stop-color="#72CAEF"/>
<stop offset="0.92" stop-color="#80E2FA"/>
<stop offset="1" stop-color="#85EBFE"/>
</linearGradient>
<linearGradient id="paint6_linear_39_879" x1="6.41952" y1="42.3144" x2="57.2329" y2="42.3144" gradientUnits="userSpaceOnUse">
<stop offset="0.15" stop-color="#000093"/>
<stop offset="0.26" stop-color="#1728A5"/>
<stop offset="0.46" stop-color="#3D6CC4"/>
<stop offset="0.64" stop-color="#5CA3DD"/>
<stop offset="0.8" stop-color="#72CAEF"/>
<stop offset="0.92" stop-color="#80E2FA"/>
<stop offset="1" stop-color="#85EBFE"/>
</linearGradient>
<linearGradient id="paint7_linear_39_879" x1="3.17059e-06" y1="40.1224" x2="61.9965" y2="40.1224" gradientUnits="userSpaceOnUse">
<stop stop-color="#941CAC"/>
<stop offset="1" stop-color="#FF54E3"/>
</linearGradient>
<linearGradient id="paint8_linear_39_879" x1="4.76019" y1="23.2275" x2="55.577" y2="23.2275" gradientUnits="userSpaceOnUse">
<stop stop-color="#941CAC"/>
<stop offset="1" stop-color="#FF54E3"/>
</linearGradient>
<linearGradient id="paint9_linear_39_879" x1="3.63323" y1="25.4195" x2="54.7163" y2="25.4195" gradientUnits="userSpaceOnUse">
<stop stop-color="#941CAC"/>
<stop offset="1" stop-color="#FF54E3"/>
</linearGradient>
<linearGradient id="paint10_linear_39_879" x1="4.76018" y1="27.6116" x2="55.577" y2="27.6116" gradientUnits="userSpaceOnUse">
<stop stop-color="#941CAC"/>
<stop offset="1" stop-color="#FF54E3"/>
</linearGradient>
<linearGradient id="paint11_linear_39_879" x1="78.8698" y1="25.4195" x2="2.12256" y2="25.4195" gradientUnits="userSpaceOnUse">
<stop offset="0.15" stop-color="#000093"/>
<stop offset="0.26" stop-color="#1728A5"/>
<stop offset="0.46" stop-color="#3D6CC4"/>
<stop offset="0.64" stop-color="#5CA3DD"/>
<stop offset="0.8" stop-color="#72CAEF"/>
<stop offset="0.92" stop-color="#80E2FA"/>
<stop offset="1" stop-color="#85EBFE"/>
</linearGradient>
<linearGradient id="paint12_linear_39_879" x1="16.2787" y1="11.7149" x2="27.5206" y2="11.7149" gradientUnits="userSpaceOnUse">
<stop stop-color="#941CAC"/>
<stop offset="1" stop-color="#FF54E3"/>
</linearGradient>
<linearGradient id="paint13_linear_39_879" x1="34.514" y1="11.6703" x2="45.7179" y2="11.6703" gradientUnits="userSpaceOnUse">
<stop stop-color="#941CAC"/>
<stop offset="1" stop-color="#FF54E3"/>
</linearGradient>
<clipPath id="clip0_39_879">
<rect width="62" height="61" fill="white"/>
</clipPath>
</defs>
</svg>
